<?xml version="1.0" encoding="iso-8859-1"?>
<!-- Uploaded to: SVG Repo, www.svgrepo.com, Generator: SVG Repo Mixer Tools -->
<svg fill="#E8E8E8" height="800px" width="800px" version="1.1" id="Layer_1" xmlns="http://www.w3.org/2000/svg" xmlns:xlink="http://www.w3.org/1999/xlink" 
	 viewBox="0 0 512 512" xml:space="preserve">
<g>
	<g>
		<path d="M512,60.746C512,27.194,484.806,0,451.254,0c-33.551,0-60.746,27.194-60.746,60.746h-34.712H190.915h-60.746H8.678
			C3.885,60.746,0,64.631,0,69.424v208.271v52.068v104.136v69.424C0,508.115,3.885,512,8.678,512h130.169h208.271h104.656
			C485.031,512,512,485.031,512,451.775c0-0.115-0.008-0.227-0.008-0.341c0.001-0.061,0.008-0.118,0.008-0.179V60.746z
			 M407.864,60.746c0-23.966,19.424-43.39,43.39-43.39c23.966,0,43.39,19.424,43.39,43.39v347.993
			c-6.259-6.387-13.919-11.392-22.48-14.531c-0.102-0.037-0.206-0.069-0.308-0.106c-0.824-0.297-1.653-0.583-2.493-0.845
			c-0.235-0.073-0.476-0.134-0.712-0.205c-0.715-0.213-1.431-0.426-2.157-0.614c-0.358-0.093-0.722-0.167-1.082-0.253
			c-0.617-0.147-1.232-0.301-1.856-0.429c-0.454-0.093-0.915-0.165-1.373-0.248c-0.541-0.098-1.079-0.207-1.625-0.291
			c-0.548-0.084-1.103-0.144-1.655-0.213c-0.466-0.059-0.929-0.13-1.398-0.178c-0.661-0.068-1.331-0.108-1.998-0.154
			c-0.369-0.026-0.734-0.065-1.105-0.084c-1.042-0.053-2.091-0.081-3.146-0.081c-16.998,0-32.365,6.98-43.39,18.231V69.424V60.746z
			 M17.356,338.441h86.392c-4.119,45.835-40.557,82.272-86.392,86.392V338.441z M451.775,494.644h-95.978v-95.458
			c0-4.793-3.885-8.678-8.678-8.678h-60.746v-8.678c0-4.793-3.885-8.678-8.678-8.678c-4.793,0-8.678,3.885-8.678,8.678v34.712
			c0,4.793,3.885,8.678,8.678,8.678c4.793,0,8.678-3.885,8.678-8.678v-8.678h52.068v86.78H147.525v-86.78h52.068v8.678
			c0,4.793,3.885,8.678,8.678,8.678s8.678-3.885,8.678-8.678v-34.712c0-4.793-3.885-8.678-8.678-8.678s-8.678,3.885-8.678,8.678
			v8.678h-60.746c-4.793,0-8.678,3.885-8.678,8.678v95.458H17.356v-52.396c58.291-4.424,104.136-53.052,104.136-112.485
			c0-4.793-3.885-8.678-8.678-8.678H17.356v-34.712h112.814c4.793,0,8.678-3.885,8.678-8.678v-60.746h8.678
			c4.793,0,8.678-3.885,8.678-8.678s-3.885-8.678-8.678-8.678h-34.712c-4.793,0-8.678,3.885-8.678,8.678s3.885,8.678,8.678,8.678
			h8.678v52.068H17.356V78.102h104.136v52.068h-8.678c-4.793,0-8.678,3.885-8.678,8.678c0,4.793,3.885,8.678,8.678,8.678h34.712
			c4.793,0,8.678-3.885,8.678-8.678c0-4.793-3.885-8.678-8.678-8.678h-8.678V78.102h43.39v95.458c0,4.793,3.885,8.678,8.678,8.678
			h34.712v8.669c0,4.793,3.885,8.678,8.678,8.678c4.793,0,8.678-3.885,8.678-8.678v-34.703c0-4.793-3.885-8.678-8.678-8.678
			c-4.793,0-8.678,3.885-8.678,8.678v8.678h-26.034v-86.78h147.525v86.78h-34.712v-8.678c0-4.793-3.885-8.678-8.678-8.678
			s-8.678,3.885-8.678,8.678v34.703c0,4.793,3.885,8.678,8.678,8.678s8.678-3.885,8.678-8.678v-8.669h43.39
			c4.793,0,8.678-3.885,8.678-8.678V78.102h26.034v373.153c0,11.571,17.356,11.571,17.356,0c0-23.966,19.424-43.39,43.39-43.39
			c23.966,0,43.39,19.424,43.39,43.39C494.644,475.446,475.446,494.644,451.775,494.644z"/>
	</g>
</g>
</svg>