<svg width="180" height="60" viewBox="0 0 180 60" fill="none" xmlns="http://www.w3.org/2000/svg">
<rect width="180" height="60" fill="#3459E6"/>
<path d="M46.4205 52.832C43.3485 52.832 40.4685 52.2347 37.7805 51.04C35.1138 49.824 32.7778 48.1493 30.7725 46.016C28.7672 43.8613 27.1992 41.3867 26.0685 38.592C24.9378 35.776 24.3725 32.768 24.3725 29.568C24.3725 26.304 24.9592 23.264 26.1325 20.448C27.3058 17.632 28.9165 15.1787 30.9645 13.088C33.0125 10.976 35.3592 9.33333 38.0045 8.16C40.6712 6.98666 43.4978 6.4 46.4845 6.4C49.9192 6.4 53.1618 7.2 56.2125 8.8C59.2845 10.4 61.8872 12.672 64.0205 15.616L60.0205 17.792C58.3138 15.552 56.2552 13.8347 53.8445 12.64C51.4552 11.4453 48.9912 10.848 46.4525 10.848C44.0418 10.848 41.7698 11.3387 39.6365 12.32C37.5245 13.28 35.6578 14.624 34.0365 16.352C32.4152 18.08 31.1458 20.0747 30.2285 22.336C29.3112 24.5973 28.8525 27.0293 28.8525 29.632C28.8525 32.2133 29.3112 34.6347 30.2285 36.896C31.1458 39.1573 32.4045 41.152 34.0045 42.88C35.6258 44.5867 37.5032 45.9307 39.6365 46.912C41.7698 47.872 44.0525 48.352 46.4845 48.352C48.4898 48.352 50.3885 48.0107 52.1805 47.328C53.9938 46.624 55.6472 45.6427 57.1405 44.384C58.6338 43.1253 59.8925 41.6533 60.9165 39.968C61.9618 38.2827 62.7192 36.448 63.1885 34.464H51.0925V30.4H68.4045C68.3405 33.4933 67.7218 36.3947 66.5485 39.104C65.3752 41.8133 63.7752 44.2027 61.7485 46.272C59.7432 48.32 57.4285 49.9307 54.8045 51.104C52.2018 52.256 49.4072 52.832 46.4205 52.832ZM74.9025 52V7.2H89.7185C92.8118 7.2 95.7132 7.78666 98.4225 8.96C101.132 10.112 103.511 11.7227 105.559 13.792C107.607 15.84 109.207 18.2187 110.359 20.928C111.532 23.616 112.119 26.5067 112.119 29.6C112.119 32.6933 111.532 35.5947 110.359 38.304C109.207 40.992 107.607 43.3707 105.559 45.44C103.511 47.488 101.132 49.0987 98.4225 50.272C95.7132 51.424 92.8118 52 89.7185 52H74.9025ZM79.3825 47.52H89.7185C92.1932 47.52 94.5078 47.0613 96.6625 46.144C98.8385 45.2053 100.748 43.9147 102.391 42.272C104.033 40.6293 105.313 38.7307 106.231 36.576C107.169 34.4 107.639 32.0747 107.639 29.6C107.639 27.1253 107.169 24.8107 106.231 22.656C105.313 20.48 104.023 18.5707 102.359 16.928C100.716 15.2853 98.8172 14.0053 96.6625 13.088C94.5078 12.1493 92.1932 11.68 89.7185 11.68H79.3825V47.52ZM138.389 52.832C135.359 52.832 132.511 52.2347 129.845 51.04C127.178 49.824 124.831 48.16 122.805 46.048C120.799 43.9147 119.221 41.44 118.069 38.624C116.938 35.808 116.373 32.8 116.373 29.6C116.373 26.4 116.938 23.392 118.069 20.576C119.221 17.76 120.799 15.296 122.805 13.184C124.831 11.0507 127.178 9.38666 129.845 8.192C132.511 6.976 135.359 6.368 138.389 6.368C142.015 6.368 145.354 7.21066 148.405 8.896C151.455 10.5813 153.983 12.8213 155.989 15.616L152.021 17.76C150.442 15.648 148.437 13.9733 146.005 12.736C143.594 11.4773 141.055 10.848 138.389 10.848C135.935 10.848 133.642 11.3493 131.509 12.352C129.397 13.3333 127.541 14.688 125.941 16.416C124.341 18.144 123.093 20.1387 122.197 22.4C121.301 24.6613 120.853 27.0613 120.853 29.6C120.853 32.1813 121.301 34.6027 122.197 36.864C123.114 39.1253 124.373 41.12 125.973 42.848C127.594 44.576 129.461 45.9307 131.573 46.912C133.706 47.872 135.978 48.352 138.389 48.352C141.162 48.352 143.733 47.7227 146.101 46.464C148.49 45.184 150.463 43.52 152.021 41.472L155.989 43.616C153.983 46.4107 151.455 48.6507 148.405 50.336C145.354 52 142.015 52.832 138.389 52.832Z" fill="white"/>
</svg>
